<svg width="256" height="254" viewBox="0 0 256 254" fill="none" xmlns="http://www.w3.org/2000/svg">
  <g clip-path="url(#clip0_148_25)">
    <path
      d="M246.135 26.873L193.593 1.57499C190.626 0.146344 187.288 -0.324671 184.041 0.227127C180.794 0.778926 177.799 2.32626 175.47 4.65499L3.466 161.482C-1.16 165.701 -1.154 172.984 3.478 177.196L17.528 189.968C19.3635 191.637 21.7251 192.611 24.2034 192.721C26.6817 192.832 29.1205 192.071 31.097 190.572L238.229 33.436C245.178 28.165 255.159 33.121 255.159 41.843V41.233C255.159 38.2327 254.312 35.2934 252.716 32.753C251.119 30.2127 248.838 28.1745 246.135 26.873Z"
      fill="#0065A9" />
    <path
      d="M246.135 226.816L193.593 252.114C190.626 253.542 187.288 254.013 184.041 253.461C180.794 252.91 177.799 251.362 175.47 249.034L3.466 92.207C-1.16 87.989 -1.154 80.705 3.478 76.494L17.528 63.721C19.3636 62.0522 21.7252 61.0784 24.2036 60.9682C26.6819 60.8581 29.1206 61.6186 31.097 63.118L238.229 220.253C245.178 225.524 255.159 220.568 255.159 211.845V212.456C255.159 215.456 254.312 218.396 252.716 220.936C251.119 223.476 248.838 225.514 246.135 226.816Z"
      fill="#007ACC" />
    <path
      d="M193.428 252.134C190.46 253.562 187.121 254.032 183.874 253.48C180.627 252.927 177.632 251.38 175.303 249.051C181.184 254.931 191.241 250.766 191.241 242.448V11.273C191.241 2.95504 181.184 -1.20996 175.303 4.67104C177.632 2.34212 180.627 0.794397 183.874 0.241909C187.121 -0.310578 190.46 0.159467 193.428 1.58704L245.961 26.85C248.666 28.1509 250.949 30.1891 252.546 32.7301C254.144 35.2711 254.991 38.2116 254.991 41.213V212.51C254.991 218.635 251.481 224.219 245.961 226.873L193.428 252.134Z"
      fill="#1F9CF0" />
  </g>
  <defs>
    <clipPath id="clip0_148_25">
      <rect width="256" height="254" fill="white" />
    </clipPath>
  </defs>
</svg>
